<svg xmlns="http://www.w3.org/2000/svg" width="64" height="64" viewBox="0 0 32 32"><path d="M5.212.0h21.575c2.843.0 5.15 2.305 5.15 5.15v21.706c0 2.843-2.306 5.15-5.15 5.15H5.212c-2.844.0-5.15-2.306-5.15-5.15V5.15C.063 2.304 2.37.0 5.213.0z" fill="#6f5499"/><path d="M16.24 13.778c.815.0 1.432-.177 1.853-.53.42-.355.63-.877.63-1.568.0-.682-.21-1.2-.63-1.554-.42-.363-1.038-.544-1.852-.544h-2.857v4.196h2.858zm.175 8.67c1.038.0 1.816-.216 2.335-.65.528-.434.792-1.09.792-1.965.0-.86-.26-1.5-.778-1.925-.52-.434-1.302-.65-2.348-.65h-3.032v5.19h3.032zm4.803-7.13c1.11.32 1.968.907 2.576 1.766.608.86.912 1.912.912 3.16.0 1.912-.653 3.337-1.96 4.276-1.305.94-3.29 1.408-5.956 1.408H8.216V6.103h7.755c2.783.0 4.795.416 6.04 1.248 1.25.833 1.877 2.165 1.877 3.998.0.965-.228 1.788-.684 2.47-.456.673-1.118 1.173-1.986 1.5z" fill="#fff"/></svg>