<svg xmlns="http://www.w3.org/2000/svg" width="256" height="64" viewBox="0 0 32 32"><path d="M1.295 29.15c-.008.28-.028.573-.068.88l1.144-2.07-.123-.677 1.148-.176.416 2.872.53-1.8c.04-.177.063-.31.067-.44.004-.133-.008-.273-.056-.465l1.205-.228c.044.244.072.456.064.676-.013.292-.085.608-.285 1.08l-.968 2.6H2.935l-.3-1.94-1.12 1.94H.127C.183 29.59.115 28.46-.01 27.27l1.193-.183c.092.66.14 1.316.112 2.064zM8.755 28.155c-.556.3-.76.412-1.264.72L6.956 31.4h-1.24l.876-4.177 1.097-.184-.048.58c.42-.245.76-.42 1.135-.58l-.02 1.115zM9.887 25.327l1.28-.176-.284 1.317-1.272.176.277-1.32zm-.396 1.888 1.28-.176-.923 4.36h-1.24l.884-4.185zM13.05 28.11l-.45 2.137c-.013.044-.02.088-.02.116.0.06.03.088.12.088.21.0.45-.087.67-.175l.217.86c-.356.192-.872.352-1.376.352-.623.0-.947-.3-.927-.808.004-.06.012-.125.024-.185l.504-2.38h-.63l.21-.992h.633l.212-1.028 1.28-.176-.252 1.203h1.02l-.28.992h-.948zM16.78 28.235c.003-.148-.125-.244-.353-.244-.448.0-.588.257-.664.61l-.064.3c.21-.053.307-.073.567-.15.336-.095.5-.255.508-.507zm-2.253.412c.208-.984.672-1.616 2.024-1.616.81.0 1.413.353 1.385 1.073-.028.836-.472 1.22-1.536 1.536-.525.16-.533.16-.905.255l-.064.3c-.03.16-.02.3.21.3.447.0 1.107-.22 1.695-.476l.208.88c-.532.323-1.356.587-2.112.587-.887.0-1.25-.388-1.227-1.116.004-.16.028-.33.072-.52l.252-1.203zM21.13 25.37l1.28-.175-1.307 6.204h-1.24l1.264-6.03zM24.827 28.235c.004-.148-.124-.244-.352-.244-.448.0-.588.257-.664.61l-.063.3c.212-.053.308-.073.568-.15.336-.095.5-.255.508-.507zm-2.256.412c.21-.984.673-1.616 2.025-1.616.808.0 1.412.353 1.384 1.073-.03.836-.473 1.22-1.537 1.536-.524.16-.532.16-.904.255l-.065.3c-.032.16-.02.3.208.3.448.0 1.108-.22 1.696-.476l.207.88c-.532.323-1.356.587-2.112.587-.888.0-1.252-.388-1.228-1.116.004-.16.028-.33.072-.52l.25-1.203zM26.083 31.207l.268-.916c.32.117.69.22 1.153.22.412.0.444-.123.484-.323.04-.192-.076-.3-.552-.552-.88-.476-.904-.792-.768-1.432.2-.924.48-1.168 1.668-1.168.404.0.92.088 1.268.2l-.236.932c-.312-.088-.776-.16-1.076-.16-.367.0-.423.044-.475.272-.04.203.0.247.404.463.963.528 1.107.712.963 1.388-.208.97-.504 1.353-1.788 1.353-.396.0-.944-.116-1.316-.28zM29.635 31.207l.268-.916c.32.117.688.22 1.152.22.412.0.444-.123.484-.323.04-.192-.077-.3-.553-.552-.88-.476-.904-.792-.768-1.432.2-.924.48-1.168 1.667-1.168.404.0.92.088 1.268.2l-.236.932c-.313-.088-.777-.16-1.077-.16-.368.0-.424.044-.476.272-.04.203.0.247.404.463.965.528 1.11.712.96 1.388-.207.97-.503 1.353-1.787 1.353-.396.0-.944-.116-1.316-.28zM33.027 32.355l.712-.956h-.465l.304-1.46h1.24l-.337 1.563-1.02 1.212-.436-.36zM38.667 30.115c-.052.228.004.332.224.332.44.0.765-.228 1.01-.44l.4-1.908c-.14-.03-.31-.037-.48-.037-.64.0-.785.344-.88.756l-.273 1.29zM39.8 31.4l-.025-.37c-.316.257-.764.457-1.376.457-.933.0-1.14-.564-.94-1.52l.243-1.152c.212-1.02.5-1.784 2.304-1.784.132.0.404.017.516.045l.36-1.704 1.272-.175L40.85 31.4h-1.043zM44.907 28.55c.012-.315-.176-.483-.58-.483-.464.0-.748.236-.832.66l-.22 1.064c-.012.06-.02.125-.024.177-.01.308.177.484.58.484.477.0.745-.235.833-.66l.22-1.063c.012-.06.02-.124.024-.176zM42 30.056c.003-.096.015-.204.035-.3l.212-.992c.232-1.1.788-1.732 2.284-1.732 1.153.0 1.65.66 1.62 1.425-.003.096-.015.204-.035.308l-.208.992c-.22 1.028-.736 1.732-2.292 1.732-1.088.0-1.636-.652-1.612-1.432zM53.71 28.49c.013-.05.02-.095.02-.13.005-.09-.04-.125-.163-.125-.228.0-.772.228-1.132.412l-.58 2.752h-1.232l.612-2.91c.012-.05.02-.095.02-.13.004-.09-.04-.125-.164-.125-.227.0-.78.228-1.12.404l-.58 2.76h-1.24l.877-4.177 1.096-.184-.024.475c.68-.316 1.21-.484 1.703-.484.42.0.636.185.72.5.664-.375 1.256-.5 1.748-.5.573.0.773.325.753.87-.004.147-.02.315-.06.49l-.632 3.005h-1.24l.613-2.908zM58.355 28.55c.012-.315-.176-.483-.58-.483-.464.0-.748.236-.832.66l-.22 1.064c-.012.06-.024.125-.024.177-.013.308.175.484.58.484.475.0.743-.235.83-.66l.22-1.063c.013-.06.02-.124.025-.176zm-2.908 1.505c.004-.096.016-.204.036-.3l.212-.992c.232-1.1.788-1.732 2.284-1.732 1.15.0 1.647.66 1.62 1.425-.005.096-.017.204-.037.308l-.208.992c-.22 1.028-.736 1.732-2.292 1.732-1.088.0-1.636-.652-1.612-1.432zM62.887 28.155c-.556.3-.76.412-1.264.72l-.536 2.524h-1.24l.876-4.177 1.096-.184-.05.58c.42-.245.765-.42 1.137-.58l-.02 1.115zM65.423 28.235c.004-.148-.124-.244-.352-.244-.447.0-.587.257-.663.61l-.064.3c.212-.053.308-.073.568-.15.337-.095.5-.255.51-.507zm-2.256.412c.208-.984.672-1.616 2.024-1.616.81.0 1.413.353 1.385 1.073-.028.836-.472 1.22-1.54 1.536-.524.16-.532.16-.904.255l-.063.3c-.032.16-.02.3.208.3.448.0 1.108-.22 1.696-.476l.21.88c-.533.323-1.357.587-2.113.587-.888.0-1.252-.388-1.228-1.116.003-.16.027-.33.07-.52l.253-1.203zM67.083 29.94h1.24l-.304 1.46h-1.24l.303-1.46zM-46.465 6.383c-2.092 3.008-1.836 6.924-.232 10.12.036.08.076.152.116.228.023.05.047.097.075.145.012.028.032.056.048.08.024.052.052.1.08.152.052.088.104.176.156.26.027.048.055.096.087.144.056.093.12.185.176.277.024.04.048.08.076.116.08.124.163.248.255.372.0.004.004.008.008.008.012.02.028.04.044.06.076.104.156.208.236.312l.084.112.216.268.084.096c.096.117.196.233.3.345.0.0.004.004.004.008s.01.008.013.012c.1.108.2.216.304.324.032.03.064.063.1.1.08.08.156.16.24.24.036.03.068.063.1.095.108.104.22.208.336.304l.004.003c.02.016.04.032.056.048.1.09.204.173.304.257.04.036.084.068.124.1.085.068.173.132.257.2.044.032.088.068.136.104.092.07.188.137.284.205l.104.072c.01.008.02.016.03.02.095.06.183.12.275.184.04.03.08.053.12.08.144.093.288.18.432.265.04.02.084.044.12.068.108.06.216.124.324.18.06.032.12.064.18.092.073.04.153.08.233.12l.056.024c.03.015.063.03.095.047.12.06.244.116.372.172.024.01.048.02.076.035.144.06.284.12.432.18.036.012.068.028.104.04.13.052.267.104.403.152.016.008.032.012.048.02.153.052.3.1.453.148.036.012.072.024.108.032.157.048.31.104.47.132 10.123 1.843 13.063-6.085 13.063-6.085-2.472 3.216-6.856 4.068-11.012 3.12-.155-.036-.307-.084-.463-.132l-.112-.036c-.152-.044-.3-.096-.444-.144l-.063-.024c-.132-.045-.264-.097-.392-.145-.036-.016-.072-.028-.108-.044-.144-.055-.288-.115-.424-.18-.032-.01-.056-.023-.088-.035-.12-.056-.24-.112-.356-.168-.037-.016-.07-.032-.105-.052-.092-.044-.184-.092-.276-.14-.065-.032-.125-.064-.185-.096-.112-.06-.224-.125-.336-.185-.037-.024-.073-.044-.113-.064-.144-.083-.288-.175-.432-.263-.04-.024-.08-.052-.116-.08-.105-.068-.21-.136-.31-.204-.03-.024-.063-.048-.1-.072-.095-.067-.19-.14-.29-.207-.04-.032-.085-.064-.13-.096l-.263-.204c-.036-.032-.076-.064-.116-.092-.11-.09-.22-.183-.327-.275l-.036-.032-.344-.312c-.036-.03-.064-.063-.096-.09-.084-.08-.164-.16-.244-.24-.036-.037-.064-.07-.096-.1-.104-.105-.204-.213-.304-.32-.004-.005-.012-.01-.016-.017-.104-.116-.204-.232-.308-.352-.03-.03-.053-.063-.08-.095-.073-.092-.15-.184-.225-.272-.024-.036-.052-.068-.08-.104-.088-.113-.172-.225-.256-.34-2.305-3.145-3.137-7.485-1.293-11.05z" fill="#2e64b3"/><path d="M-39.965 3.847c-1.52 2.18-1.436 5.096-.252 7.4.196.388.42.76.668 1.116.23.324.477.712.78.972.11.12.22.236.34.352.03.028.06.056.09.088.11.108.227.216.347.32.004.004.012.008.012.012s.003.004.003.004c.132.117.268.23.404.337.032.024.06.048.096.072.136.107.28.21.42.31.004.0.008.005.016.01.06.043.127.083.19.127l.09.06c.103.068.207.132.315.192l.048.023c.088.056.184.108.28.156.032.02.064.035.096.05.063.033.13.07.19.1.01.005.02.01.033.013.132.068.268.128.404.188l.092.037c.107.048.22.092.33.136.05.016.097.036.145.052.1.036.204.072.304.104l.14.043c.143.044.287.104.443.128 7.816 1.297 9.62-4.723 9.62-4.723-1.628 2.344-4.78 3.46-8.14 2.588-.152-.04-.3-.08-.444-.128-.05-.012-.09-.028-.133-.044-.104-.032-.208-.068-.312-.108-.048-.016-.096-.036-.14-.052-.112-.044-.224-.088-.332-.136-.032-.012-.064-.024-.088-.036-.14-.06-.276-.123-.408-.187-.068-.036-.136-.068-.204-.104-.04-.02-.08-.04-.116-.06-.092-.05-.176-.097-.26-.15l-.06-.03-.312-.193c-.036-.02-.064-.044-.096-.064-.07-.044-.137-.088-.205-.136-.144-.1-.28-.204-.42-.308-.032-.03-.064-.053-.096-.077-1.477-1.16-2.64-2.748-3.193-4.548-.584-1.868-.456-3.964.552-5.664z" fill="#2e64b3"/><path d="M-34.5 1.955c-.897 1.312-.98 2.944-.365 4.396.656 1.54 1.996 2.75 3.556 3.32.065.025.13.045.193.07.028.007.056.02.088.027.093.028.18.064.277.08 4.316.832 5.488-2.216 5.8-2.664-1.028 1.476-2.752 1.832-4.864 1.316-.168-.04-.348-.1-.508-.16-.204-.073-.408-.157-.608-.253-.372-.18-.732-.4-1.064-.652C-33.89 6-35.065 3.263-33.83 1.03z" fill="#2e64b3"/><path d="M65.527 8.107l.168.716c.048.204-.08.372-.292.372zM51.907 6.88c-.044.2-.096.447-.128.61l-1.493 6.993L51.91 6.88zM7.155 11.56l-.824 2.92.825-2.92z" fill="#2f2d2e"/><path d="M65.695 8.823l-.432-1.82c-.34-1.316-1.3-1.94-3.464-1.94h-9.097c-.208.0-.42.096-.46.3L48.79 21.727c-.043.208-.06.352-.035.456.024.104.428.084.636.084h3.153c.212.0.592.016.704-.028.116-.05.168-.36.212-.57l1.11-5.735 1.36-6.364c.045-.203.253-.37.46-.37l9.01-.01c.207.0.34-.167.29-.37z" fill="#2f2d2e"/><path d="M78.51 2.19c-.21.005-3.995.0-3.995.0-.208.0-.48.225-.596.4l-7.013 10.317c-.12.172-.256.168-.3-.036l-.52-2.26c-.044-.203-.252-.37-.468-.37h-4.51c-.207.0-.33.17-.275.375l2.02 7.084c.06.203.064.535.012.735l-.944 3.588c-.048.204.08.264.292.264h4.452c.208.0.424-.06.476-.264l.944-3.64c.052-.204.196-.48.324-.648l11.445-15.18c.128-.168.112-.364-.1-.364H78.51zM31.58 5.08h-4.07c-.207.0-.42.07-.46.28l-1.343 6.29-1.34 6.025c-.044.204-.252.192-.46.192h-2.672c-2.644.0-2.34-1.672-1.796-4.176.007-.023 1.695-8.327 1.695-8.327.036-.204-.1-.28-.308-.28H16.95c-.207.0-.415.072-.455.28l-1.56 8.324c-.776 4.5-.8 8.46 4.42 8.592.084.003 8.24.0 8.24.0.212.0.42-.07.464-.273l1.767-8.348 1.764-8.38s.065-.193-.007-.193zM-8.94 5.063h-4.36c-.21.0-.42.048-.47.256l-.787 3.403c-.044.2.088.364.3.364h4.176c.21.0.42-.192.463-.392l.76-3.432s.06-.2-.084-.2zM-14.537 10.235c-.208.0-.42.164-.464.372l-.59 2.596-1.31 6s-.7 3.188-.765 3.388c0 0-.588 2.305-1.992 2.21-.652-.045-1.4-.193-1.4-.193-.392-.12-.42.288-.468.492l-.864 3.735c-.047.204.085.388.293.392.0.0 1.88.264 3.204.264h.216c3.276.0 5.008-1.927 6.112-7.155l1.296-6.052 1.217-5.632c.044-.203-.08-.395-.288-.395zM43.807 12.24c0 .227-.72.183-.72.183l-5.72-.04c-.196.0-.256-.276-.268-.476.0-.008.015-.236.03-.296.445-1.53 1.76-2.407 3.853-2.407 2.352.0 2.856 1.168 2.856 2.46zm-1.932-7.2c-7.336.0-9.088 4.535-10.064 9.027-.975 4.584-.89 8.204 6.7 8.204h6.949c.203-.003.41-.19.45-.395l.75-2.908c.043-.208-.097-.268-.305-.268h-6.828c-2.472.0-3.36-.765-3.272-2.473.0-.196.22-.692.432-.692h10.516c.46-.004.476-.272.476-.272 1.07-4.832 1.14-10.228-5.805-10.228zM6.29 14.483l-.843 2.888c-.06.205-.296.337-.508.337H.58c-3.313.0-4.117-2.556-3.313-6.376.808-3.9 2.408-6.315 5.664-6.56 4.453-.335 5.36 2.81 4.285 6.42l-.924 3.29zm3.877 3.06s2.056-4.992 2.52-7.876c.64-3.86-1.292-9.46-8.76-9.46C-3.497.207-6.717 5.55-7.95 11.363c-1.227 5.852.38 10.948 7.76 10.908l11.27-.007c.207.0.423-.168.475-.368l.948-3.616c.052-.205-.076-.37-.288-.373l-.908-.008-.908-.005c-.18.0-.28-.116-.257-.272.004-.028.008-.056.02-.084z" fill="#2f2d2e"/></svg>