<svg id="Layer_1" data-name="Layer 1" xmlns="http://www.w3.org/2000/svg" viewBox="0 0 100.18 100.17"><defs><style>.cls-1{fill:#fff;}.cls-2{fill:#004ccf;}</style></defs><title>TLC 2018 Logo</title><path class="cls-1" d="M100.18,50.09A50.09,50.09,0,1,1,50.09,0,50.08,50.08,0,0,1,100.18,50.09Z"/><path class="cls-2" d="M94.67,50A44.67,44.67,0,1,1,50,5.33,44.66,44.66,0,0,1,94.67,50Z"/><path class="cls-1" d="M61.84,57s-12.17,1.25-14,1.33-1.63-1.64-1.4-2.42,4.38-20.3,4.38-20.3S8.74,40.87,5.62,41a39.32,39.32,0,0,0-.76,9s6.15-.82,7.24-.9,1.56.08,1.32,1.64c-.51,3.48-3.29,16.11-3.83,18.72a15.75,15.75,0,0,0,.88,1.64l6.94-1c3.2-.47,3.9-2.11,4.07-2.73S25.14,53,25.68,50s1.49-2.65,2.11-2.73S30.62,47,34,46.44c2.35-.39,3.83-3.43,3.83-3.43s-4,18.43-4.61,21.08a3,3,0,0,0,3,3.75c.74,0,15.14-1.64,19.68-2.27,5.08-.7,4.73-1.67,5.08-2.26s1.79-4.69,1.79-4.69Z"/><path class="cls-1" d="M94.36,49.35l0,.08c.35-1-.18-.93-.18-.93L86,49.43a2.6,2.6,0,0,0-2.28,1.4C81,55,76.4,56.88,73.37,55S70,48.06,72.71,43.86,80,37.81,83,39.74a4.57,4.57,0,0,1,1.39,1.64c.42.93.64,1.85,3.36,1.3l6.15-1.22a.36.36,0,0,0,.25-.1c-.17-.88-.35-1.76-.55-2.63-.13-.26-.28-.53-.46-.84l0,.07c-4.39-7-15-8.25-23.59-2.82S57.51,50.62,61.9,57.6s14.95,8.25,23.59,2.82A20.63,20.63,0,0,0,94.36,49.35Z"/></svg>